<svg xmlns="http://www.w3.org/2000/svg" version="1.1" xmlns:xlink="http://www.w3.org/1999/xlink" xmlns:svgjs="http://svgjs.dev/svgjs" width="2000" height="1500" viewBox="0 0 2000 1500"><rect width="2000" height="1500" fill="#10b981"></rect><g transform="matrix(0.75,0,0,0.75,249.090909090909,282.7536437246963)"><svg viewBox="0 0 396 247" data-background-color="#10b981" preserveAspectRatio="xMidYMid meet" height="1247" width="2000" xmlns="http://www.w3.org/2000/svg" xmlns:xlink="http://www.w3.org/1999/xlink"><g id="tight-bounds" transform="matrix(1,0,0,1,0.2400000000000091,-0.09999999999999432)"><svg viewBox="0 0 395.52 247.2" height="247.2" width="395.52"><g><svg></svg></g><g><svg viewBox="0 0 395.52 247.2" height="247.2" width="395.52"><g transform="matrix(1,0,0,1,75.54432,62.356465314581804)"><svg viewBox="0 0 244.43135999999998 122.48706937083638" height="122.48706937083638" width="244.43135999999998"><g><svg viewBox="0 0 244.43135999999998 122.48706937083638" height="122.48706937083638" width="244.43135999999998"><g><svg viewBox="0 0 244.43136 122.4870693708364" height="122.48706937083638" width="244.43135999999998"><g><svg viewBox="0 0 244.43136 122.4870693708364" height="122.4870693708364" width="244.43136"><g id="textblocktransform"><svg viewBox="0 0 244.43136 122.4870693708364" height="122.4870693708364" width="244.43136" id="textblock"><g><svg viewBox="0 0 244.43136 122.4870693708364" height="122.4870693708364" width="244.43136"><g transform="matrix(1,0,0,1,0,0)"><svg width="244.43136" viewBox="0.5 -33.85 67.55 33.85" height="122.4870693708364" data-palette-color="#ffffff"><path d="M29.75 0L23.05-20.55Q22.3-22.6 21.85-24.55L21.85-24.55Q21.6-23.6 21.38-22.65 21.15-21.7 20.8-20.55L20.8-20.55 14.3 0 9.9 0 0.5-33.85 6.45-33.85 10.85-16.9Q12-12.5 12.5-9.8L12.5-9.8Q12.85-11.2 13.33-12.9 13.8-14.6 14.5-16.8L14.5-16.8 19.8-33.85 24.25-33.85 29.55-16.8Q30.25-14.55 30.75-12.7 31.25-10.85 31.55-9.45L31.55-9.45Q31.75-10.85 32.13-12.7 32.5-14.55 33.1-16.8L33.1-16.8 37.5-33.85 43.55-33.85 34.15 0 29.75 0ZM44.45-33.85L68.05-33.85 67.3-29.35 58.9-29.35 58.9 0 53 0 53-29.35 44.45-29.35 44.45-33.85Z" opacity="1" transform="matrix(1,0,0,1,0,0)" fill="#ffffff" class="wordmark-text-0" data-fill-palette-color="primary" id="text-0"></path></svg></g></svg></g></svg></g></svg></g></svg></g></svg></g></svg></g><g><path d="M0 123.6c0-68.262 55.338-123.6 123.6-123.6 39.741 0 75.101 18.756 97.712 47.898l-7.091 0c-21.66-25.901-54.216-42.375-90.621-42.375-65.212 0-118.077 52.865-118.077 118.077 0 65.212 52.865 118.077 118.077 118.077 36.404 0 68.961-16.475 90.621-42.375h7.091c-22.611 29.143-57.971 47.898-97.712 47.898-68.262 0-123.6-55.338-123.6-123.6z" fill="#ffffff" stroke="transparent" data-fill-palette-color="tertiary"></path></g></svg></g><defs></defs></svg><rect width="395.52" height="247.2" fill="none" stroke="none" visibility="hidden"></rect></g></svg></g></svg>